<svg width="185" height="70" viewBox="0 0 185 70" fill="none" xmlns="http://www.w3.org/2000/svg">
<mask id="path-1-outside-1_204_16" maskUnits="userSpaceOnUse" x="0" y="0" width="185" height="70" fill="black">
<rect fill="white" width="185" height="70"/>
<path d="M47.632 22.88C46.4413 20.6867 44.718 19.026 42.462 17.898C40.2687 16.7073 37.668 16.112 34.66 16.112C29.4587 16.112 25.2913 17.8353 22.158 21.282C19.0247 24.666 17.458 29.2093 17.458 34.912C17.458 40.9907 19.0873 45.7533 22.346 49.2C25.6673 52.584 30.2107 54.276 35.976 54.276C39.924 54.276 43.2453 53.2733 45.94 51.268C48.6973 49.2627 50.7027 46.38 51.956 42.62H31.558V30.776H66.526V45.722C65.3353 49.7327 63.2987 53.4613 60.416 56.908C57.596 60.3547 53.9927 63.1433 49.606 65.274C45.2193 67.4047 40.2687 68.47 34.754 68.47C28.2367 68.47 22.4087 67.06 17.27 64.24C12.194 61.3573 8.21467 57.378 5.332 52.302C2.512 47.226 1.102 41.4293 1.102 34.912C1.102 28.3947 2.512 22.598 5.332 17.522C8.21467 12.3833 12.194 8.404 17.27 5.584C22.346 2.70133 28.1427 1.26 34.66 1.26C42.556 1.26 49.1987 3.17133 54.588 6.994C60.04 10.8167 63.6433 16.112 65.398 22.88H47.632ZM115.85 68L102.408 47.79L90.5636 68H72.3276L93.4776 34.442L71.8576 2.012H90.5636L103.818 21.94L115.474 2.012H133.71L112.748 35.288L134.556 68H115.85ZM158.699 14.89V28.238H180.225V40.646H158.699V55.122H183.045V68H142.625V2.012H183.045V14.89H158.699Z"/>
</mask>
<path d="M47.632 22.88C46.4413 20.6867 44.718 19.026 42.462 17.898C40.2687 16.7073 37.668 16.112 34.66 16.112C29.4587 16.112 25.2913 17.8353 22.158 21.282C19.0247 24.666 17.458 29.2093 17.458 34.912C17.458 40.9907 19.0873 45.7533 22.346 49.2C25.6673 52.584 30.2107 54.276 35.976 54.276C39.924 54.276 43.2453 53.2733 45.94 51.268C48.6973 49.2627 50.7027 46.38 51.956 42.62H31.558V30.776H66.526V45.722C65.3353 49.7327 63.2987 53.4613 60.416 56.908C57.596 60.3547 53.9927 63.1433 49.606 65.274C45.2193 67.4047 40.2687 68.47 34.754 68.47C28.2367 68.47 22.4087 67.06 17.27 64.24C12.194 61.3573 8.21467 57.378 5.332 52.302C2.512 47.226 1.102 41.4293 1.102 34.912C1.102 28.3947 2.512 22.598 5.332 17.522C8.21467 12.3833 12.194 8.404 17.27 5.584C22.346 2.70133 28.1427 1.26 34.66 1.26C42.556 1.26 49.1987 3.17133 54.588 6.994C60.04 10.8167 63.6433 16.112 65.398 22.88H47.632ZM115.85 68L102.408 47.79L90.5636 68H72.3276L93.4776 34.442L71.8576 2.012H90.5636L103.818 21.94L115.474 2.012H133.71L112.748 35.288L134.556 68H115.85ZM158.699 14.89V28.238H180.225V40.646H158.699V55.122H183.045V68H142.625V2.012H183.045V14.89H158.699Z" fill="#FFD700"/>
<path d="M47.632 22.88L46.7531 23.3571L47.037 23.88H47.632V22.88ZM42.462 17.898L41.9849 18.7768L41.9997 18.7849L42.0148 18.7924L42.462 17.898ZM22.158 21.282L22.8918 21.9614L22.8979 21.9547L22.158 21.282ZM22.346 49.2L21.6194 49.887L21.6258 49.8938L21.6323 49.9005L22.346 49.2ZM45.94 51.268L45.3518 50.4592L45.343 50.4658L45.94 51.268ZM51.956 42.62L52.9047 42.9362L53.3434 41.62H51.956V42.62ZM31.558 42.62H30.558V43.62H31.558V42.62ZM31.558 30.776V29.776H30.558V30.776H31.558ZM66.526 30.776H67.526V29.776H66.526V30.776ZM66.526 45.722L67.4846 46.0066L67.526 45.8673V45.722H66.526ZM60.416 56.908L59.6489 56.2664L59.642 56.2748L60.416 56.908ZM49.606 65.274L49.1691 64.3745L49.606 65.274ZM17.27 64.24L16.7762 65.1096L16.7825 65.1132L16.7889 65.1167L17.27 64.24ZM5.332 52.302L4.4578 52.7877L4.46244 52.7958L5.332 52.302ZM5.332 17.522L4.45985 17.0327L4.45784 17.0364L5.332 17.522ZM17.27 5.584L17.7557 6.45819L17.7638 6.45356L17.27 5.584ZM54.588 6.994L54.0095 7.80966L54.0139 7.81278L54.588 6.994ZM65.398 22.88V23.88H66.6903L66.366 22.629L65.398 22.88ZM48.5109 22.4029C47.2213 20.0275 45.3464 18.2221 42.9092 17.0036L42.0148 18.7924C44.0896 19.8299 45.6613 21.3458 46.7531 23.3571L48.5109 22.4029ZM42.9391 17.0191C40.5721 15.7342 37.8006 15.112 34.66 15.112V17.112C37.5354 17.112 39.9653 17.6805 41.9849 18.7768L42.9391 17.0191ZM34.66 15.112C29.2134 15.112 24.7642 16.9286 21.4181 20.6093L22.8979 21.9547C25.8185 18.742 29.7039 17.112 34.66 17.112V15.112ZM21.4242 20.6026C18.0816 24.2126 16.458 29.0198 16.458 34.912H18.458C18.458 29.3988 19.9677 25.1193 22.8918 21.9614L21.4242 20.6026ZM16.458 34.912C16.458 41.1715 18.1398 46.2067 21.6194 49.887L23.0726 48.513C20.0349 45.3 18.458 40.8099 18.458 34.912H16.458ZM21.6323 49.9005C25.1811 53.5162 30.0042 55.276 35.976 55.276V53.276C30.4172 53.276 26.1536 51.6518 23.0597 48.4995L21.6323 49.9005ZM35.976 55.276C40.1001 55.276 43.6409 54.2255 46.537 52.0702L45.343 50.4658C42.8497 52.3212 39.7479 53.276 35.976 53.276V55.276ZM46.5282 52.0767C49.4803 49.9297 51.5965 46.8608 52.9047 42.9362L51.0073 42.3038C49.8088 45.8992 47.9144 48.5956 45.3518 50.4593L46.5282 52.0767ZM51.956 41.62H31.558V43.62H51.956V41.62ZM32.558 42.62V30.776H30.558V42.62H32.558ZM31.558 31.776H66.526V29.776H31.558V31.776ZM65.526 30.776V45.722H67.526V30.776H65.526ZM65.5674 45.4374C64.4183 49.3078 62.4506 52.9166 59.6489 56.2664L61.1831 57.5496C64.1467 54.0061 66.2523 50.1575 67.4846 46.0066L65.5674 45.4374ZM59.642 56.2748C56.9222 59.599 53.438 62.301 49.1691 64.3745L50.0429 66.1735C54.5474 63.9856 58.2698 61.1103 61.19 57.5412L59.642 56.2748ZM49.1691 64.3745C44.9354 66.4308 40.1372 67.47 34.754 67.47V69.47C40.4001 69.47 45.5032 68.3785 50.0429 66.1735L49.1691 64.3745ZM34.754 67.47C28.3857 67.47 22.7264 66.0937 17.7511 63.3633L16.7889 65.1167C22.091 68.0263 28.0877 69.47 34.754 69.47V67.47ZM17.7638 63.3704C12.8447 60.5768 8.99516 56.7273 6.20156 51.8082L4.46244 52.7958C7.43417 58.0287 11.5433 62.1378 16.7762 65.1096L17.7638 63.3704ZM6.20616 51.8164C3.47839 46.9064 2.102 41.2806 2.102 34.912H0.102C0.102 41.5781 1.54561 47.5456 4.45784 52.7876L6.20616 51.8164ZM2.102 34.912C2.102 28.5434 3.47839 22.9176 6.20616 18.0076L4.45784 17.0364C1.54561 22.2784 0.102 28.2459 0.102 34.912H2.102ZM6.20414 18.0113C8.99754 13.0317 12.8442 9.18676 17.7556 6.45815L16.7844 4.70984C11.5439 7.62123 7.43179 11.7349 4.45986 17.0327L6.20414 18.0113ZM17.7638 6.45356C22.6723 3.66601 28.2952 2.26 34.66 2.26V0.259996C27.9901 0.259996 22.0197 1.73665 16.7762 4.71444L17.7638 6.45356ZM34.66 2.26C42.3901 2.26 48.8201 4.1288 54.0095 7.80965L55.1665 6.17834C49.5773 2.21386 42.7219 0.259996 34.66 0.259996V2.26ZM54.0139 7.81278C59.261 11.4918 62.7317 16.5805 64.43 23.131L66.366 22.629C64.5549 15.6435 60.819 10.1416 55.1621 6.17521L54.0139 7.81278ZM65.398 21.88H47.632V23.88H65.398V21.88ZM115.85 68L115.017 68.5538L115.314 69H115.85V68ZM102.408 47.79L103.24 47.2362L102.354 45.9037L101.545 47.2844L102.408 47.79ZM90.5636 68V69H91.1366L91.4263 68.5056L90.5636 68ZM72.3276 68L71.4816 67.4668L70.5153 69H72.3276V68ZM93.4776 34.442L94.3236 34.9752L94.6692 34.4267L94.3096 33.8873L93.4776 34.442ZM71.8576 2.012V1.012H69.989L71.0255 2.5667L71.8576 2.012ZM90.5636 2.012L91.3962 1.4582L91.0994 1.012H90.5636V2.012ZM103.818 21.94L102.985 22.4938L103.872 23.8276L104.681 22.4449L103.818 21.94ZM115.474 2.012V1.012H114.9L114.61 1.50711L115.474 2.012ZM133.71 2.012L134.556 2.545L135.521 1.012H133.71V2.012ZM112.748 35.288L111.901 34.755L111.556 35.3034L111.916 35.8427L112.748 35.288ZM134.556 68V69H136.424L135.388 67.4453L134.556 68ZM116.682 67.4462L103.24 47.2362L101.575 48.3438L115.017 68.5538L116.682 67.4462ZM101.545 47.2844L89.7008 67.4944L91.4263 68.5056L103.27 48.2956L101.545 47.2844ZM90.5636 67H72.3276V69H90.5636V67ZM73.1736 68.5332L94.3236 34.9752L92.6316 33.9088L71.4816 67.4668L73.1736 68.5332ZM94.3096 33.8873L72.6896 1.4573L71.0255 2.5667L92.6455 34.9967L94.3096 33.8873ZM71.8576 3.012H90.5636V1.012H71.8576V3.012ZM89.7309 2.56579L102.985 22.4938L104.65 21.3862L91.3962 1.4582L89.7309 2.56579ZM104.681 22.4449L116.337 2.51688L114.61 1.50711L102.954 21.4351L104.681 22.4449ZM115.474 3.012H133.71V1.012H115.474V3.012ZM132.863 1.47899L111.901 34.755L113.594 35.821L134.556 2.545L132.863 1.47899ZM111.916 35.8427L133.724 68.5547L135.388 67.4453L113.58 34.7333L111.916 35.8427ZM134.556 67H115.85V69H134.556V67ZM158.699 14.89V13.89H157.699V14.89H158.699ZM158.699 28.238H157.699V29.238H158.699V28.238ZM180.225 28.238H181.225V27.238H180.225V28.238ZM180.225 40.646V41.646H181.225V40.646H180.225ZM158.699 40.646V39.646H157.699V40.646H158.699ZM158.699 55.122H157.699V56.122H158.699V55.122ZM183.045 55.122H184.045V54.122H183.045V55.122ZM183.045 68V69H184.045V68H183.045ZM142.625 68H141.625V69H142.625V68ZM142.625 2.012V1.012H141.625V2.012H142.625ZM183.045 2.012H184.045V1.012H183.045V2.012ZM183.045 14.89V15.89H184.045V14.89H183.045ZM157.699 14.89V28.238H159.699V14.89H157.699ZM158.699 29.238H180.225V27.238H158.699V29.238ZM179.225 28.238V40.646H181.225V28.238H179.225ZM180.225 39.646H158.699V41.646H180.225V39.646ZM157.699 40.646V55.122H159.699V40.646H157.699ZM158.699 56.122H183.045V54.122H158.699V56.122ZM182.045 55.122V68H184.045V55.122H182.045ZM183.045 67H142.625V69H183.045V67ZM143.625 68V2.012H141.625V68H143.625ZM142.625 3.012H183.045V1.012H142.625V3.012ZM182.045 2.012V14.89H184.045V2.012H182.045ZM183.045 13.89H158.699V15.89H183.045V13.89Z" fill="#FFD700" mask="url(#path-1-outside-1_204_16)"/>
</svg>
