<svg width="418" height="103" viewBox="0 0 418 103" fill="none" xmlns="http://www.w3.org/2000/svg">
<mask id="path-1-outside-1_207_10" maskUnits="userSpaceOnUse" x="0" y="0" width="418" height="104" fill="black">
<rect fill="white" width="418" height="104"/>
<path d="M35.48 77L21.756 52.09H17.902V77H1.828V11.012H28.806C34.0073 11.012 38.4253 11.9207 42.06 13.738C45.7573 15.5553 48.5147 18.062 50.332 21.258C52.1493 24.3913 53.058 27.9007 53.058 31.786C53.058 36.1727 51.8047 40.0893 49.298 43.536C46.854 46.9827 43.2193 49.4267 38.394 50.868L53.622 77H35.48ZM17.902 40.716H27.866C30.8113 40.716 33.0047 39.9953 34.446 38.554C35.95 37.1127 36.702 35.076 36.702 32.444C36.702 29.9373 35.95 27.9633 34.446 26.522C33.0047 25.0807 30.8113 24.36 27.866 24.36H17.902V40.716ZM112.592 49.928C112.592 51.432 112.498 52.9987 112.31 54.628H75.9323C76.183 57.8867 77.217 60.3933 79.0343 62.148C80.9143 63.84 83.2016 64.686 85.8963 64.686C89.907 64.686 92.6956 62.994 94.2623 59.61H111.37C110.493 63.0567 108.895 66.1587 106.576 68.916C104.32 71.6733 101.469 73.8353 98.0223 75.402C94.5756 76.9687 90.7216 77.752 86.4603 77.752C81.3216 77.752 76.747 76.6553 72.7363 74.462C68.7256 72.2687 65.5923 69.1353 63.3363 65.062C61.0803 60.9887 59.9523 56.226 59.9523 50.774C59.9523 45.322 61.049 40.5593 63.2423 36.486C65.4983 32.4127 68.6316 29.2793 72.6423 27.086C76.653 24.8927 81.259 23.796 86.4603 23.796C91.5363 23.796 96.0483 24.8613 99.9963 26.992C103.944 29.1227 107.015 32.162 109.208 36.11C111.464 40.058 112.592 44.664 112.592 49.928ZM96.1423 45.698C96.1423 42.9407 95.2023 40.7473 93.3223 39.118C91.4423 37.4887 89.0923 36.674 86.2723 36.674C83.5776 36.674 81.2903 37.4573 79.4103 39.024C77.593 40.5907 76.465 42.8153 76.0263 45.698H96.1423ZM137.146 31.974C138.713 29.53 140.875 27.556 143.632 26.052C146.389 24.548 149.617 23.796 153.314 23.796C157.638 23.796 161.555 24.8927 165.064 27.086C168.573 29.2793 171.331 32.4127 173.336 36.486C175.404 40.5593 176.438 45.2907 176.438 50.68C176.438 56.0693 175.404 60.832 173.336 64.968C171.331 69.0413 168.573 72.206 165.064 74.462C161.555 76.6553 157.638 77.752 153.314 77.752C149.679 77.752 146.452 77 143.632 75.496C140.875 73.992 138.713 72.0493 137.146 69.668V102.004H121.072V24.548H137.146V31.974ZM160.082 50.68C160.082 46.6693 158.954 43.536 156.698 41.28C154.505 38.9613 151.779 37.802 148.52 37.802C145.324 37.802 142.598 38.9613 140.342 41.28C138.149 43.5987 137.052 46.7633 137.052 50.774C137.052 54.7847 138.149 57.9493 140.342 60.268C142.598 62.5867 145.324 63.746 148.52 63.746C151.716 63.746 154.442 62.5867 156.698 60.268C158.954 57.8867 160.082 54.6907 160.082 50.68ZM236.665 24.548V77H220.591V69.856C218.962 72.1747 216.737 74.0547 213.917 75.496C211.16 76.8747 208.089 77.564 204.705 77.564C200.694 77.564 197.154 76.6867 194.083 74.932C191.012 73.1147 188.631 70.514 186.939 67.13C185.247 63.746 184.401 59.7667 184.401 55.192V24.548H200.381V53.03C200.381 56.5393 201.29 59.2653 203.107 61.208C204.924 63.1507 207.368 64.122 210.439 64.122C213.572 64.122 216.048 63.1507 217.865 61.208C219.682 59.2653 220.591 56.5393 220.591 53.03V24.548H236.665ZM264.285 31.974C265.789 29.53 267.951 27.556 270.771 26.052C273.591 24.548 276.818 23.796 280.453 23.796C284.777 23.796 288.693 24.8927 292.203 27.086C295.712 29.2793 298.469 32.4127 300.475 36.486C302.543 40.5593 303.577 45.2907 303.577 50.68C303.577 56.0693 302.543 60.832 300.475 64.968C298.469 69.0413 295.712 72.206 292.203 74.462C288.693 76.6553 284.777 77.752 280.453 77.752C276.755 77.752 273.528 77.0313 270.771 75.59C268.013 74.086 265.851 72.112 264.285 69.668V77H248.211V7.44H264.285V31.974ZM287.221 50.68C287.221 46.6693 286.093 43.536 283.837 41.28C281.643 38.9613 278.917 37.802 275.659 37.802C272.463 37.802 269.737 38.9613 267.481 41.28C265.287 43.5987 264.191 46.7633 264.191 50.774C264.191 54.7847 265.287 57.9493 267.481 60.268C269.737 62.5867 272.463 63.746 275.659 63.746C278.855 63.746 281.581 62.5867 283.837 60.268C286.093 57.8867 287.221 54.6907 287.221 50.68ZM328.084 7.44V77H312.01V7.44H328.084ZM347.816 19.096C344.996 19.096 342.678 18.2813 340.86 16.652C339.106 14.96 338.228 12.892 338.228 10.448C338.228 7.94133 339.106 5.87333 340.86 4.244C342.678 2.55199 344.996 1.70599 347.816 1.70599C350.574 1.70599 352.83 2.55199 354.584 4.244C356.402 5.87333 357.31 7.94133 357.31 10.448C357.31 12.892 356.402 14.96 354.584 16.652C352.83 18.2813 350.574 19.096 347.816 19.096ZM355.806 24.548V77H339.732V24.548H355.806ZM364.259 50.774C364.259 45.322 365.356 40.5593 367.549 36.486C369.805 32.4127 372.907 29.2793 376.855 27.086C380.866 24.8927 385.44 23.796 390.579 23.796C397.159 23.796 402.642 25.5193 407.029 28.966C411.478 32.4127 414.392 37.2693 415.771 43.536H398.663C397.222 39.5253 394.433 37.52 390.297 37.52C387.352 37.52 385.002 38.6793 383.247 40.998C381.492 43.254 380.615 46.5127 380.615 50.774C380.615 55.0353 381.492 58.3253 383.247 60.644C385.002 62.9 387.352 64.028 390.297 64.028C394.433 64.028 397.222 62.0227 398.663 58.012H415.771C414.392 64.1533 411.478 68.9787 407.029 72.488C402.58 75.9973 397.096 77.752 390.579 77.752C385.44 77.752 380.866 76.6553 376.855 74.462C372.907 72.2687 369.805 69.1353 367.549 65.062C365.356 60.9887 364.259 56.226 364.259 50.774Z"/>
</mask>
<path d="M35.48 77L34.6041 77.4826L34.8892 78H35.48V77ZM21.756 52.09L22.6319 51.6074L22.3468 51.09H21.756V52.09ZM17.902 52.09V51.09H16.902V52.09H17.902ZM17.902 77V78H18.902V77H17.902ZM1.828 77H0.828V78H1.828V77ZM1.828 11.012V10.012H0.828V11.012H1.828ZM42.06 13.738L41.6128 14.6324L41.6189 14.6354L42.06 13.738ZM50.332 21.258L49.4627 21.7523L49.467 21.7597L50.332 21.258ZM49.298 43.536L48.4892 42.9478L48.4823 42.9576L49.298 43.536ZM38.394 50.868L38.1078 49.9098L36.8902 50.2735L37.53 51.3715L38.394 50.868ZM53.622 77V78H55.3621L54.486 76.4965L53.622 77ZM17.902 40.716H16.902V41.716H17.902V40.716ZM34.446 38.554L33.7541 37.832L33.7464 37.8394L33.7389 37.8469L34.446 38.554ZM34.446 26.522L33.7389 27.2291L33.7464 27.2366L33.7541 27.244L34.446 26.522ZM17.902 24.36V23.36H16.902V24.36H17.902ZM36.3559 76.5174L22.6319 51.6074L20.8801 52.5726L34.6041 77.4826L36.3559 76.5174ZM21.756 51.09H17.902V53.09H21.756V51.09ZM16.902 52.09V77H18.902V52.09H16.902ZM17.902 76H1.828V78H17.902V76ZM2.828 77V11.012H0.828V77H2.828ZM1.828 12.012H28.806V10.012H1.828V12.012ZM28.806 12.012C33.8942 12.012 38.1503 12.9012 41.6128 14.6324L42.5072 12.8436C38.7004 10.9401 34.1204 10.012 28.806 10.012V12.012ZM41.6189 14.6354C45.1588 16.3754 47.7562 18.7512 49.4627 21.7523L51.2013 20.7637C49.2732 17.3728 46.3558 14.7352 42.5011 12.8405L41.6189 14.6354ZM49.467 21.7597C51.1895 24.7296 52.058 28.0636 52.058 31.786H54.058C54.058 27.7377 53.1092 24.0531 51.197 20.7563L49.467 21.7597ZM52.058 31.786C52.058 35.968 50.8678 39.6774 48.4893 42.9478L50.1067 44.1242C52.7416 40.5013 54.058 36.3774 54.058 31.786H52.058ZM48.4823 42.9576C46.191 46.1889 42.7617 48.5197 38.1078 49.9098L38.6802 51.8262C43.677 50.3336 47.5171 47.7764 50.1137 44.1144L48.4823 42.9576ZM37.53 51.3715L52.758 77.5035L54.486 76.4965L39.258 50.3645L37.53 51.3715ZM53.622 76H35.48V78H53.622V76ZM17.902 41.716H27.866V39.716H17.902V41.716ZM27.866 41.716C30.9582 41.716 33.4545 40.9597 35.1531 39.2611L33.7389 37.8469C32.5548 39.031 30.6645 39.716 27.866 39.716V41.716ZM35.1379 39.276C36.8876 37.5992 37.702 35.2725 37.702 32.444H35.702C35.702 34.8795 35.0124 36.6262 33.7541 37.832L35.1379 39.276ZM37.702 32.444C37.702 29.7244 36.878 27.4676 35.1379 25.8L33.7541 27.244C35.022 28.4591 35.702 30.1503 35.702 32.444H37.702ZM35.1531 25.8149C33.4545 24.1163 30.9582 23.36 27.866 23.36V25.36C30.6645 25.36 32.5548 26.045 33.7389 27.2291L35.1531 25.8149ZM27.866 23.36H17.902V25.36H27.866V23.36ZM16.902 24.36V40.716H18.902V24.36H16.902ZM112.31 54.628V55.628H113.202L113.304 54.7426L112.31 54.628ZM75.9323 54.628V53.628H74.8524L74.9353 54.7047L75.9323 54.628ZM79.0343 62.148L78.3397 62.8674L78.3523 62.8796L78.3653 62.8913L79.0343 62.148ZM94.2623 59.61V58.61H93.6233L93.3548 59.1899L94.2623 59.61ZM111.37 59.61L112.339 59.8567L112.657 58.61H111.37V59.61ZM106.576 68.916L105.811 68.2723L105.802 68.2828L106.576 68.916ZM98.0223 75.402L98.4361 76.3124L98.4361 76.3124L98.0223 75.402ZM72.7363 74.462L72.2565 75.3394L72.2565 75.3394L72.7363 74.462ZM63.3363 65.062L64.2111 64.5775L64.2111 64.5775L63.3363 65.062ZM63.2423 36.486L62.3675 36.0015L62.3618 36.0119L63.2423 36.486ZM72.6423 27.086L73.1221 27.9634L73.1221 27.9634L72.6423 27.086ZM99.9963 26.992L99.5214 27.872L99.5214 27.872L99.9963 26.992ZM109.208 36.11L108.334 36.5957L108.34 36.6061L109.208 36.11ZM96.1423 45.698V46.698H97.1423V45.698H96.1423ZM93.3223 39.118L93.9772 38.3623L93.9772 38.3623L93.3223 39.118ZM79.4103 39.024L78.7701 38.2558L78.7637 38.2611L78.7574 38.2666L79.4103 39.024ZM76.0263 45.698L75.0377 45.5476L74.8626 46.698H76.0263V45.698ZM111.592 49.928C111.592 51.3904 111.501 52.9187 111.317 54.5134L113.304 54.7426C113.496 53.0786 113.592 51.4736 113.592 49.928H111.592ZM112.31 53.628H75.9323V55.628H112.31V53.628ZM74.9353 54.7047C75.199 58.1339 76.2996 60.8977 78.3397 62.8674L79.7289 61.4286C78.1343 59.889 77.1669 57.6395 76.9294 54.5513L74.9353 54.7047ZM78.3653 62.8913C80.4417 64.76 82.9722 65.686 85.8963 65.686V63.686C83.4311 63.686 81.387 62.92 79.7033 61.4047L78.3653 62.8913ZM85.8963 65.686C88.0427 65.686 89.9315 65.2324 91.5145 64.2719C93.1022 63.3086 94.3153 61.8758 95.1698 60.0301L93.3548 59.1899C92.6427 60.7282 91.678 61.8334 90.4771 62.5621C89.2715 63.2936 87.7606 63.686 85.8963 63.686V65.686ZM94.2623 60.61H111.37V58.61H94.2623V60.61ZM110.401 59.3633C109.562 62.6621 108.034 65.6288 105.811 68.2724L107.342 69.5596C109.756 66.6885 111.424 63.4513 112.339 59.8567L110.401 59.3633ZM105.802 68.2828C103.65 70.9139 100.924 72.9844 97.6085 74.4916L98.4361 76.3124C102.014 74.6863 104.991 72.4328 107.35 69.5492L105.802 68.2828ZM97.6085 74.4916C94.3072 75.9922 90.5969 76.752 86.4603 76.752V78.752C90.8464 78.752 94.8441 77.9451 98.4361 76.3124L97.6085 74.4916ZM86.4603 76.752C81.4682 76.752 77.0622 75.6879 73.2161 73.5846L72.2565 75.3394C76.4318 77.6227 81.1751 78.752 86.4603 78.752V76.752ZM73.2161 73.5846C69.3749 71.484 66.3771 68.4884 64.2111 64.5775L62.4615 65.5465C64.8075 69.7823 68.0764 73.0534 72.2565 75.3394L73.2161 73.5846ZM64.2111 64.5775C62.0503 60.676 60.9523 56.0856 60.9523 50.774H58.9523C58.9523 56.3664 60.1104 61.3014 62.4615 65.5465L64.2111 64.5775ZM60.9523 50.774C60.9523 45.4579 62.0208 40.8637 64.1228 36.9601L62.3618 36.0119C60.0771 40.2549 58.9523 45.1861 58.9523 50.774H60.9523ZM64.1171 36.9705C66.2831 33.0596 69.2809 30.064 73.1221 27.9634L72.1625 26.2086C67.9824 28.4946 64.7135 31.7657 62.3675 36.0015L64.1171 36.9705ZM73.1221 27.9634C76.9664 25.861 81.4033 24.796 86.4603 24.796V22.796C81.1147 22.796 76.3395 23.9243 72.1625 26.2086L73.1221 27.9634ZM86.4603 24.796C91.3926 24.796 95.7376 25.83 99.5214 27.872L100.471 26.112C96.3591 23.8927 91.68 22.796 86.4603 22.796V24.796ZM99.5214 27.872C103.3 29.9114 106.233 32.8133 108.334 36.5956L110.082 35.6244C107.797 31.5107 104.588 28.3339 100.471 26.112L99.5214 27.872ZM108.34 36.6061C110.497 40.3807 111.592 44.8103 111.592 49.928H113.592C113.592 44.5177 112.432 39.7353 110.077 35.6139L108.34 36.6061ZM97.1423 45.698C97.1423 42.6859 96.1017 40.2035 93.9772 38.3623L92.6674 39.8737C94.3029 41.2911 95.1423 43.1954 95.1423 45.698H97.1423ZM93.9772 38.3623C91.8911 36.5543 89.2987 35.674 86.2723 35.674V37.674C88.886 37.674 90.9935 38.423 92.6674 39.8737L93.9772 38.3623ZM86.2723 35.674C83.369 35.674 80.8484 36.5239 78.7701 38.2558L80.0505 39.7922C81.7323 38.3907 83.7863 37.674 86.2723 37.674V35.674ZM78.7574 38.2666C76.7225 40.0208 75.5042 42.4819 75.0377 45.5476L77.0149 45.8484C77.4258 43.1488 78.4634 41.1606 80.0633 39.7814L78.7574 38.2666ZM76.0263 46.698H96.1423V44.698H76.0263V46.698ZM137.146 31.974H136.146V35.387L137.988 32.5137L137.146 31.974ZM143.632 26.052L143.153 25.1741L143.153 25.1741L143.632 26.052ZM165.064 27.086L164.534 27.934L164.534 27.934L165.064 27.086ZM173.336 36.486L172.439 36.9277L172.444 36.9387L173.336 36.486ZM173.336 64.968L172.442 64.5208L172.439 64.5263L173.336 64.968ZM165.064 74.462L165.594 75.3101L165.605 75.3032L165.064 74.462ZM143.632 75.496L143.153 76.3739L143.162 76.3784L143.632 75.496ZM137.146 69.668L137.982 69.1184L136.146 66.3286V69.668H137.146ZM137.146 102.004V103.004H138.146V102.004H137.146ZM121.072 102.004H120.072V103.004H121.072V102.004ZM121.072 24.548V23.548H120.072V24.548H121.072ZM137.146 24.548H138.146V23.548H137.146V24.548ZM156.698 41.28L155.972 41.9672L155.981 41.9773L155.991 41.9871L156.698 41.28ZM140.342 41.28L139.625 40.5826L139.616 40.5928L140.342 41.28ZM140.342 60.268L139.616 60.9553L139.625 60.9654L140.342 60.268ZM156.698 60.268L157.415 60.9654L157.424 60.9557L156.698 60.268ZM137.988 32.5137C139.457 30.2226 141.489 28.3602 144.111 26.9299L143.153 25.1741C140.261 26.7518 137.969 28.8374 136.304 31.4343L137.988 32.5137ZM144.111 26.9299C146.697 25.5191 149.754 24.796 153.314 24.796V22.796C149.479 22.796 146.082 23.5769 143.153 25.1741L144.111 26.9299ZM153.314 24.796C157.46 24.796 161.191 25.8446 164.534 27.934L165.594 26.238C161.919 23.9408 157.817 22.796 153.314 22.796V24.796ZM164.534 27.934C167.871 30.0192 170.508 33.0045 172.439 36.9277L174.233 36.0443C172.154 31.8208 169.276 28.5394 165.594 26.238L164.534 27.934ZM172.444 36.9387C174.43 40.8486 175.438 45.4198 175.438 50.68H177.438C177.438 45.1615 176.379 40.27 174.228 36.0333L172.444 36.9387ZM175.438 50.68C175.438 55.9397 174.43 60.5449 172.442 64.5208L174.231 65.4152C176.379 61.1191 177.438 56.1989 177.438 50.68H175.438ZM172.439 64.5263C170.507 68.4515 167.866 71.4717 164.523 73.6208L165.605 75.3032C169.281 72.9403 172.155 69.6312 174.233 65.4097L172.439 64.5263ZM164.534 73.614C161.191 75.7034 157.46 76.752 153.314 76.752V78.752C157.817 78.752 161.919 77.6072 165.594 75.31L164.534 73.614ZM153.314 76.752C149.821 76.752 146.759 76.0304 144.103 74.6136L143.162 76.3784C146.145 77.9696 149.538 78.752 153.314 78.752V76.752ZM144.111 74.6181C141.483 73.1845 139.449 71.3491 137.982 69.1184L136.311 70.2176C137.976 72.7495 140.267 74.7995 143.153 76.3739L144.111 74.6181ZM136.146 69.668V102.004H138.146V69.668H136.146ZM137.146 101.004H121.072V103.004H137.146V101.004ZM122.072 102.004V24.548H120.072V102.004H122.072ZM121.072 25.548H137.146V23.548H121.072V25.548ZM136.146 24.548V31.974H138.146V24.548H136.146ZM161.082 50.68C161.082 46.476 159.894 43.0618 157.405 40.5729L155.991 41.9871C158.014 44.0102 159.082 46.8627 159.082 50.68H161.082ZM157.425 40.5928C155.038 38.0698 152.047 36.802 148.52 36.802V38.802C151.51 38.802 153.972 39.8529 155.972 41.9672L157.425 40.5928ZM148.52 36.802C145.05 36.802 142.067 38.0732 139.625 40.5826L141.059 41.9774C143.129 39.8495 145.598 38.802 148.52 38.802V36.802ZM139.616 40.5928C137.205 43.1416 136.052 46.5763 136.052 50.774H138.052C138.052 46.9504 139.093 44.0557 141.069 41.9672L139.616 40.5928ZM136.052 50.774C136.052 54.9717 137.205 58.4064 139.616 60.9552L141.069 59.5808C139.093 57.4923 138.052 54.5976 138.052 50.774H136.052ZM139.625 60.9654C142.067 63.4748 145.05 64.746 148.52 64.746V62.746C145.598 62.746 143.129 61.6985 141.059 59.5706L139.625 60.9654ZM148.52 64.746C151.99 64.746 154.973 63.4748 157.415 60.9654L155.981 59.5706C153.911 61.6985 151.442 62.746 148.52 62.746V64.746ZM157.424 60.9557C159.893 58.3492 161.082 54.8864 161.082 50.68H159.082C159.082 54.4949 158.015 57.4241 155.972 59.5803L157.424 60.9557ZM236.665 24.548H237.665V23.548H236.665V24.548ZM236.665 77V78H237.665V77H236.665ZM220.591 77H219.591V78H220.591V77ZM220.591 69.856H221.591V66.6936L219.773 69.2811L220.591 69.856ZM213.917 75.496L214.364 76.3905L214.372 76.3864L213.917 75.496ZM194.083 74.932L193.574 75.7926L193.58 75.7965L193.587 75.8002L194.083 74.932ZM186.939 67.13L186.045 67.5772L186.045 67.5772L186.939 67.13ZM184.401 24.548V23.548H183.401V24.548H184.401ZM200.381 24.548H201.381V23.548H200.381V24.548ZM203.107 61.208L202.377 61.8912L202.377 61.8912L203.107 61.208ZM217.865 61.208L217.135 60.5248L217.865 61.208ZM220.591 24.548V23.548H219.591V24.548H220.591ZM235.665 24.548V77H237.665V24.548H235.665ZM236.665 76H220.591V78H236.665V76ZM221.591 77V69.856H219.591V77H221.591ZM219.773 69.2811C218.248 71.4516 216.154 73.2295 213.462 74.6056L214.372 76.3864C217.32 74.8799 219.676 72.8978 221.409 70.4309L219.773 69.2811ZM213.47 74.6016C210.864 75.9042 207.949 76.564 204.705 76.564V78.564C208.229 78.564 211.455 77.8451 214.364 76.3904L213.47 74.6016ZM204.705 76.564C200.845 76.564 197.479 75.721 194.579 74.0638L193.587 75.8002C196.828 77.6523 200.544 78.564 204.705 78.564V76.564ZM194.592 74.0714C191.697 72.358 189.445 69.9057 187.833 66.6828L186.045 67.5772C187.817 71.1223 190.327 73.8713 193.574 75.7926L194.592 74.0714ZM187.833 66.6828C186.224 63.4637 185.401 59.6435 185.401 55.192H183.401C183.401 59.8899 184.27 64.0283 186.045 67.5772L187.833 66.6828ZM185.401 55.192V24.548H183.401V55.192H185.401ZM184.401 25.548H200.381V23.548H184.401V25.548ZM199.381 24.548V53.03H201.381V24.548H199.381ZM199.381 53.03C199.381 56.7099 200.337 59.7103 202.377 61.8912L203.837 60.5248C202.243 58.8203 201.381 56.3688 201.381 53.03H199.381ZM202.377 61.8912C204.413 64.0677 207.138 65.122 210.439 65.122V63.122C207.598 63.122 205.436 62.2336 203.837 60.5248L202.377 61.8912ZM210.439 65.122C213.796 65.122 216.555 64.072 218.595 61.8912L217.135 60.5248C215.54 62.2293 213.349 63.122 210.439 63.122V65.122ZM218.595 61.8912C220.635 59.7103 221.591 56.7099 221.591 53.03H219.591C219.591 56.3688 218.729 58.8203 217.135 60.5248L218.595 61.8912ZM221.591 53.03V24.548H219.591V53.03H221.591ZM220.591 25.548H236.665V23.548H220.591V25.548ZM264.285 31.974H263.285V35.507L265.136 32.4981L264.285 31.974ZM270.771 26.052L270.3 25.1696L270.3 25.1696L270.771 26.052ZM292.203 27.086L291.673 27.934L291.673 27.934L292.203 27.086ZM300.475 36.486L299.578 36.9277L299.583 36.9387L300.475 36.486ZM300.475 64.968L299.58 64.5208L299.578 64.5263L300.475 64.968ZM292.203 74.462L292.733 75.3101L292.744 75.3032L292.203 74.462ZM270.771 75.59L270.292 76.4679L270.3 76.4721L270.308 76.4762L270.771 75.59ZM264.285 69.668L265.127 69.1283L263.285 66.255V69.668H264.285ZM264.285 77V78H265.285V77H264.285ZM248.211 77H247.211V78H248.211V77ZM248.211 7.44V6.44H247.211V7.44H248.211ZM264.285 7.44H265.285V6.44H264.285V7.44ZM283.837 41.28L283.11 41.9672L283.12 41.9773L283.13 41.9871L283.837 41.28ZM267.481 41.28L266.764 40.5826L266.754 40.5928L267.481 41.28ZM267.481 60.268L266.754 60.9553L266.764 60.9654L267.481 60.268ZM283.837 60.268L284.554 60.9654L284.563 60.9557L283.837 60.268ZM265.136 32.4981C266.537 30.2219 268.56 28.3646 271.241 26.9343L270.3 25.1696C267.342 26.7474 265.04 28.8381 263.433 31.4499L265.136 32.4981ZM271.241 26.9343C273.898 25.5176 276.96 24.796 280.453 24.796V22.796C276.677 22.796 273.284 23.5784 270.3 25.1696L271.241 26.9343ZM280.453 24.796C284.598 24.796 288.33 25.8446 291.673 27.934L292.733 26.238C289.057 23.9408 284.955 22.796 280.453 22.796V24.796ZM291.673 27.934C295.009 30.0192 297.646 33.0045 299.578 36.9277L301.372 36.0443C299.293 31.8208 296.415 28.5394 292.733 26.238L291.673 27.934ZM299.583 36.9387C301.568 40.8486 302.577 45.4198 302.577 50.68H304.577C304.577 45.1615 303.517 40.27 301.366 36.0333L299.583 36.9387ZM302.577 50.68C302.577 55.9397 301.568 60.5449 299.58 64.5208L301.369 65.4152C303.517 61.1191 304.577 56.1989 304.577 50.68H302.577ZM299.578 64.5263C297.645 68.4515 295.005 71.4717 291.662 73.6208L292.744 75.3032C296.419 72.9403 299.294 69.6312 301.372 65.4097L299.578 64.5263ZM291.673 73.614C288.33 75.7034 284.598 76.752 280.453 76.752V78.752C284.955 78.752 289.057 77.6072 292.733 75.31L291.673 73.614ZM280.453 76.752C276.887 76.752 273.824 76.0575 271.234 74.7038L270.308 76.4762C273.232 78.0052 276.624 78.752 280.453 78.752V76.752ZM271.25 74.7121C268.627 73.2818 266.595 71.4194 265.127 69.1283L263.443 70.2077C265.108 72.8046 267.4 74.8902 270.292 76.4679L271.25 74.7121ZM263.285 69.668V77H265.285V69.668H263.285ZM264.285 76H248.211V78H264.285V76ZM249.211 77V7.44H247.211V77H249.211ZM248.211 8.44H264.285V6.44H248.211V8.44ZM263.285 7.44V31.974H265.285V7.44H263.285ZM288.221 50.68C288.221 46.476 287.033 43.0618 284.544 40.5729L283.13 41.9871C285.153 44.0102 286.221 46.8627 286.221 50.68H288.221ZM284.563 40.5928C282.177 38.0698 279.186 36.802 275.659 36.802V38.802C278.649 38.802 281.11 39.8529 283.11 41.9672L284.563 40.5928ZM275.659 36.802C272.189 36.802 269.206 38.0732 266.764 40.5826L268.198 41.9774C270.268 39.8495 272.736 38.802 275.659 38.802V36.802ZM266.754 40.5928C264.343 43.1416 263.191 46.5763 263.191 50.774H265.191C265.191 46.9504 266.232 44.0557 268.207 41.9672L266.754 40.5928ZM263.191 50.774C263.191 54.9717 264.343 58.4064 266.754 60.9552L268.207 59.5808C266.232 57.4923 265.191 54.5976 265.191 50.774H263.191ZM266.764 60.9654C269.206 63.4748 272.189 64.746 275.659 64.746V62.746C272.736 62.746 270.268 61.6985 268.198 59.5706L266.764 60.9654ZM275.659 64.746C279.128 64.746 282.112 63.4748 284.554 60.9654L283.12 59.5706C281.05 61.6985 278.581 62.746 275.659 62.746V64.746ZM284.563 60.9557C287.032 58.3492 288.221 54.8864 288.221 50.68H286.221C286.221 54.4949 285.153 57.4241 283.111 59.5803L284.563 60.9557ZM328.084 7.44H329.084V6.44H328.084V7.44ZM328.084 77V78H329.084V77H328.084ZM312.01 77H311.01V78H312.01V77ZM312.01 7.44V6.44H311.01V7.44H312.01ZM327.084 7.44V77H329.084V7.44H327.084ZM328.084 76H312.01V78H328.084V76ZM313.01 77V7.44H311.01V77H313.01ZM312.01 8.44H328.084V6.44H312.01V8.44ZM340.86 16.652L340.166 17.3718L340.179 17.3844L340.193 17.3966L340.86 16.652ZM340.86 4.244L341.541 4.97679L341.542 4.97589L340.86 4.244ZM354.584 4.244L353.89 4.96384L353.903 4.97644L353.917 4.98856L354.584 4.244ZM354.584 16.652L355.265 17.3848L355.266 17.3839L354.584 16.652ZM355.806 24.548H356.806V23.548H355.806V24.548ZM355.806 77V78H356.806V77H355.806ZM339.732 77H338.732V78H339.732V77ZM339.732 24.548V23.548H338.732V24.548H339.732ZM347.816 18.096C345.202 18.096 343.133 17.347 341.528 15.9074L340.193 17.3966C342.222 19.2157 344.791 20.096 347.816 20.096V18.096ZM341.554 15.9322C339.996 14.4292 339.228 12.6213 339.228 10.448H337.228C337.228 13.1627 338.215 15.4908 340.166 17.3718L341.554 15.9322ZM339.228 10.448C339.228 8.20472 340 6.40715 341.541 4.97679L340.18 3.5112C338.211 5.33951 337.228 7.67795 337.228 10.448H339.228ZM341.542 4.97589C343.149 3.47982 345.212 2.70599 347.816 2.70599V0.705994C344.78 0.705994 342.207 1.62417 340.179 3.5121L341.542 4.97589ZM347.816 2.70599C350.352 2.70599 352.347 3.47559 353.89 4.96384L355.278 3.52415C353.312 1.6284 350.796 0.705994 347.816 0.705994V2.70599ZM353.917 4.98856C355.516 6.42246 356.31 8.21674 356.31 10.448H358.31C358.31 7.66592 357.287 5.3242 355.252 3.49943L353.917 4.98856ZM356.31 10.448C356.31 12.6094 355.521 14.4138 353.903 15.9201L355.266 17.3839C357.283 15.5062 358.31 13.1746 358.31 10.448H356.31ZM353.904 15.9192C352.362 17.3508 350.362 18.096 347.816 18.096V20.096C350.785 20.096 353.297 19.2119 355.265 17.3848L353.904 15.9192ZM354.806 24.548V77H356.806V24.548H354.806ZM355.806 76H339.732V78H355.806V76ZM340.732 77V24.548H338.732V77H340.732ZM339.732 25.548H355.806V23.548H339.732V25.548ZM367.549 36.486L366.674 36.0015L366.668 36.0119L367.549 36.486ZM376.855 27.086L376.375 26.2086L376.369 26.2118L376.855 27.086ZM407.029 28.966L406.411 29.7523L406.417 29.7565L407.029 28.966ZM415.771 43.536V44.536H417.015L416.748 43.3211L415.771 43.536ZM398.663 43.536L397.722 43.8742L397.96 44.536H398.663V43.536ZM383.247 40.998L384.036 41.612L384.044 41.6014L383.247 40.998ZM383.247 60.644L382.449 61.2475L382.458 61.2579L383.247 60.644ZM398.663 58.012V57.012H397.96L397.722 57.6738L398.663 58.012ZM415.771 58.012L416.747 58.231L417.02 57.012H415.771V58.012ZM407.029 72.488L406.41 71.7028L406.41 71.7028L407.029 72.488ZM376.855 74.462L376.369 75.3362L376.375 75.3394L376.855 74.462ZM367.549 65.062L366.668 65.5361L366.674 65.5465L367.549 65.062ZM365.259 50.774C365.259 45.4579 366.327 40.8637 368.429 36.9601L366.668 36.0119C364.384 40.2549 363.259 45.1861 363.259 50.774H365.259ZM368.424 36.9705C370.592 33.0556 373.561 30.0597 377.341 27.9602L376.369 26.2118C372.252 28.499 369.018 31.7698 366.674 36.0015L368.424 36.9705ZM377.335 27.9634C381.181 25.8601 385.587 24.796 390.579 24.796V22.796C385.294 22.796 380.55 23.9253 376.375 26.2086L377.335 27.9634ZM390.579 24.796C396.977 24.796 402.231 26.4679 406.411 29.7523L407.647 28.1797C403.054 24.5708 397.341 22.796 390.579 22.796V24.796ZM406.417 29.7565C410.655 33.0399 413.458 37.6789 414.794 43.7509L416.748 43.3211C415.326 36.8598 412.301 31.7854 407.641 28.1754L406.417 29.7565ZM415.771 42.536H398.663V44.536H415.771V42.536ZM399.604 43.1978C398.832 41.0483 397.669 39.3586 396.074 38.2121C394.477 37.0639 392.531 36.52 390.297 36.52V38.52C392.199 38.52 393.715 38.9788 394.907 39.8359C396.101 40.6947 397.053 42.0131 397.722 43.8742L399.604 43.1978ZM390.297 36.52C387.043 36.52 384.396 37.8223 382.45 40.3946L384.044 41.6014C385.607 39.5363 387.66 38.52 390.297 38.52V36.52ZM382.458 40.3841C380.514 42.8833 379.615 46.3948 379.615 50.774H381.615C381.615 46.6306 382.471 43.6247 384.036 41.6119L382.458 40.3841ZM379.615 50.774C379.615 55.1558 380.515 58.6908 382.45 61.2474L384.044 60.0406C382.47 57.9599 381.615 54.9149 381.615 50.774H379.615ZM382.458 61.2579C384.408 63.7661 387.054 65.028 390.297 65.028V63.028C387.649 63.028 385.595 62.0339 384.036 60.0301L382.458 61.2579ZM390.297 65.028C392.531 65.028 394.477 64.4841 396.074 63.3359C397.669 62.1894 398.832 60.4997 399.604 58.3502L397.722 57.6738C397.053 59.5349 396.101 60.8533 394.907 61.7121C393.715 62.5692 392.199 63.028 390.297 63.028V65.028ZM398.663 59.012H415.771V57.012H398.663V59.012ZM414.795 57.793C413.461 63.7366 410.659 68.3516 406.41 71.7028L407.648 73.2732C412.298 69.6058 415.324 64.57 416.747 58.231L414.795 57.793ZM406.41 71.7028C402.163 75.0526 396.907 76.752 390.579 76.752V78.752C397.286 78.752 402.997 76.9421 407.648 73.2732L406.41 71.7028ZM390.579 76.752C385.587 76.752 381.181 75.6879 377.335 73.5846L376.375 75.3394C380.55 77.6227 385.294 78.752 390.579 78.752V76.752ZM377.341 73.5878C373.561 71.4883 370.592 68.4924 368.424 64.5775L366.674 65.5465C369.018 69.7782 372.252 73.049 376.369 75.3362L377.341 73.5878ZM368.429 64.5879C366.327 60.6843 365.259 56.0901 365.259 50.774H363.259C363.259 56.3619 364.384 61.2931 366.668 65.5361L368.429 64.5879Z" fill="#FFD700" mask="url(#path-1-outside-1_207_10)"/>
</svg>
